<mxfile host="app.diagrams.net" agent="Mozilla/5.0 (X11; Linux x86_64) AppleWebKit/537.36 (KHTML, like Gecko) Chrome/140.0.0.0 Safari/537.36" version="28.2.5">
  <diagram name="Seite-1" id="hYtHQyQzFq9uQvqXccz4">
    <mxGraphModel dx="1573" dy="637" grid="1" gridSize="10" guides="1" tooltips="1" connect="1" arrows="1" fold="1" page="1" pageScale="1" pageWidth="827" pageHeight="1169" math="0" shadow="0">
      <root>
        <mxCell id="0" />
        <mxCell id="1" parent="0" />
        <mxCell id="M_FBvFwb3x526R3b4piB-26" value="" style="rounded=0;whiteSpace=wrap;html=1;fillColor=#f9f7ed;strokeColor=#36393d;" vertex="1" parent="1">
          <mxGeometry x="-40" y="630" width="670" height="120" as="geometry" />
        </mxCell>
        <mxCell id="M_FBvFwb3x526R3b4piB-25" value="" style="rounded=0;whiteSpace=wrap;html=1;fillColor=#f9f7ed;strokeColor=#36393d;" vertex="1" parent="1">
          <mxGeometry x="-40" y="420" width="670" height="200" as="geometry" />
        </mxCell>
        <mxCell id="M_FBvFwb3x526R3b4piB-4" style="edgeStyle=orthogonalEdgeStyle;rounded=0;orthogonalLoop=1;jettySize=auto;html=1;endArrow=none;endFill=0;startArrow=classic;startFill=1;" edge="1" parent="1" source="M_FBvFwb3x526R3b4piB-1" target="M_FBvFwb3x526R3b4piB-2">
          <mxGeometry relative="1" as="geometry" />
        </mxCell>
        <mxCell id="M_FBvFwb3x526R3b4piB-1" value="c1" style="ellipse;whiteSpace=wrap;html=1;aspect=fixed;fillColor=#ffe6cc;strokeColor=#d79b00;" vertex="1" parent="1">
          <mxGeometry x="120" y="440" width="80" height="80" as="geometry" />
        </mxCell>
        <mxCell id="M_FBvFwb3x526R3b4piB-5" style="edgeStyle=orthogonalEdgeStyle;rounded=0;orthogonalLoop=1;jettySize=auto;html=1;entryX=0;entryY=0.5;entryDx=0;entryDy=0;endArrow=none;endFill=0;startArrow=classic;startFill=1;" edge="1" parent="1" source="M_FBvFwb3x526R3b4piB-2" target="M_FBvFwb3x526R3b4piB-3">
          <mxGeometry relative="1" as="geometry" />
        </mxCell>
        <mxCell id="M_FBvFwb3x526R3b4piB-2" value="c2" style="ellipse;whiteSpace=wrap;html=1;aspect=fixed;fillColor=#ffe6cc;strokeColor=#d79b00;" vertex="1" parent="1">
          <mxGeometry x="250" y="440" width="80" height="80" as="geometry" />
        </mxCell>
        <mxCell id="M_FBvFwb3x526R3b4piB-3" value="c3" style="ellipse;whiteSpace=wrap;html=1;aspect=fixed;fillColor=#ffe6cc;strokeColor=#d79b00;" vertex="1" parent="1">
          <mxGeometry x="380" y="440" width="80" height="80" as="geometry" />
        </mxCell>
        <mxCell id="M_FBvFwb3x526R3b4piB-6" style="edgeStyle=orthogonalEdgeStyle;rounded=0;orthogonalLoop=1;jettySize=auto;html=1;endArrow=none;endFill=0;startArrow=classic;startFill=1;" edge="1" parent="1" source="M_FBvFwb3x526R3b4piB-7" target="M_FBvFwb3x526R3b4piB-9">
          <mxGeometry relative="1" as="geometry" />
        </mxCell>
        <mxCell id="M_FBvFwb3x526R3b4piB-7" value="c1" style="ellipse;whiteSpace=wrap;html=1;aspect=fixed;fillColor=#ffe6cc;strokeColor=#d79b00;" vertex="1" parent="1">
          <mxGeometry x="120" y="530" width="80" height="80" as="geometry" />
        </mxCell>
        <mxCell id="M_FBvFwb3x526R3b4piB-8" style="edgeStyle=orthogonalEdgeStyle;rounded=0;orthogonalLoop=1;jettySize=auto;html=1;entryX=0;entryY=0.5;entryDx=0;entryDy=0;endArrow=none;endFill=0;startArrow=classic;startFill=1;" edge="1" parent="1" source="M_FBvFwb3x526R3b4piB-9" target="M_FBvFwb3x526R3b4piB-10">
          <mxGeometry relative="1" as="geometry" />
        </mxCell>
        <mxCell id="M_FBvFwb3x526R3b4piB-9" value="c2" style="ellipse;whiteSpace=wrap;html=1;aspect=fixed;fillColor=#ffe6cc;strokeColor=#d79b00;" vertex="1" parent="1">
          <mxGeometry x="250" y="530" width="80" height="80" as="geometry" />
        </mxCell>
        <mxCell id="M_FBvFwb3x526R3b4piB-12" style="edgeStyle=orthogonalEdgeStyle;rounded=0;orthogonalLoop=1;jettySize=auto;html=1;entryX=0;entryY=0.5;entryDx=0;entryDy=0;endArrow=none;endFill=0;startArrow=classic;startFill=1;" edge="1" parent="1" source="M_FBvFwb3x526R3b4piB-10" target="M_FBvFwb3x526R3b4piB-11">
          <mxGeometry relative="1" as="geometry" />
        </mxCell>
        <mxCell id="M_FBvFwb3x526R3b4piB-10" value="c3" style="ellipse;whiteSpace=wrap;html=1;aspect=fixed;fillColor=#ffe6cc;strokeColor=#d79b00;" vertex="1" parent="1">
          <mxGeometry x="380" y="530" width="80" height="80" as="geometry" />
        </mxCell>
        <mxCell id="M_FBvFwb3x526R3b4piB-11" value="c4" style="ellipse;whiteSpace=wrap;html=1;aspect=fixed;fillColor=#d5e8d4;strokeColor=#82b366;" vertex="1" parent="1">
          <mxGeometry x="510" y="530" width="80" height="80" as="geometry" />
        </mxCell>
        <mxCell id="M_FBvFwb3x526R3b4piB-13" value="Developer 1&lt;div&gt;main&lt;/div&gt;" style="text;html=1;align=center;verticalAlign=middle;whiteSpace=wrap;rounded=0;fontSize=16;" vertex="1" parent="1">
          <mxGeometry y="555" width="100" height="30" as="geometry" />
        </mxCell>
        <mxCell id="M_FBvFwb3x526R3b4piB-14" value="&lt;div&gt;Remote&lt;/div&gt;origin/main" style="text;html=1;align=center;verticalAlign=middle;whiteSpace=wrap;rounded=0;fontSize=16;" vertex="1" parent="1">
          <mxGeometry x="20" y="465" width="60" height="30" as="geometry" />
        </mxCell>
        <mxCell id="M_FBvFwb3x526R3b4piB-16" style="edgeStyle=orthogonalEdgeStyle;rounded=0;orthogonalLoop=1;jettySize=auto;html=1;endArrow=none;endFill=0;startArrow=classic;startFill=1;" edge="1" parent="1" source="M_FBvFwb3x526R3b4piB-17" target="M_FBvFwb3x526R3b4piB-19">
          <mxGeometry relative="1" as="geometry" />
        </mxCell>
        <mxCell id="M_FBvFwb3x526R3b4piB-17" value="c1" style="ellipse;whiteSpace=wrap;html=1;aspect=fixed;fillColor=#ffe6cc;strokeColor=#d79b00;" vertex="1" parent="1">
          <mxGeometry x="120" y="660" width="80" height="80" as="geometry" />
        </mxCell>
        <mxCell id="M_FBvFwb3x526R3b4piB-18" style="edgeStyle=orthogonalEdgeStyle;rounded=0;orthogonalLoop=1;jettySize=auto;html=1;entryX=0;entryY=0.5;entryDx=0;entryDy=0;endArrow=none;endFill=0;startArrow=classic;startFill=1;" edge="1" parent="1" source="M_FBvFwb3x526R3b4piB-19" target="M_FBvFwb3x526R3b4piB-21">
          <mxGeometry relative="1" as="geometry" />
        </mxCell>
        <mxCell id="M_FBvFwb3x526R3b4piB-19" value="c2" style="ellipse;whiteSpace=wrap;html=1;aspect=fixed;fillColor=#ffe6cc;strokeColor=#d79b00;" vertex="1" parent="1">
          <mxGeometry x="250" y="660" width="80" height="80" as="geometry" />
        </mxCell>
        <mxCell id="M_FBvFwb3x526R3b4piB-20" style="edgeStyle=orthogonalEdgeStyle;rounded=0;orthogonalLoop=1;jettySize=auto;html=1;entryX=0;entryY=0.5;entryDx=0;entryDy=0;endArrow=none;endFill=0;startArrow=classic;startFill=1;" edge="1" parent="1" source="M_FBvFwb3x526R3b4piB-21" target="M_FBvFwb3x526R3b4piB-22">
          <mxGeometry relative="1" as="geometry" />
        </mxCell>
        <mxCell id="M_FBvFwb3x526R3b4piB-21" value="c3" style="ellipse;whiteSpace=wrap;html=1;aspect=fixed;fillColor=#ffe6cc;strokeColor=#d79b00;" vertex="1" parent="1">
          <mxGeometry x="380" y="660" width="80" height="80" as="geometry" />
        </mxCell>
        <mxCell id="M_FBvFwb3x526R3b4piB-22" value="c4" style="ellipse;whiteSpace=wrap;html=1;aspect=fixed;fillColor=#ffe6cc;strokeColor=#d79b00;" vertex="1" parent="1">
          <mxGeometry x="510" y="660" width="80" height="80" as="geometry" />
        </mxCell>
        <mxCell id="M_FBvFwb3x526R3b4piB-23" value="origin/main&lt;br&gt;main" style="text;html=1;align=center;verticalAlign=middle;whiteSpace=wrap;rounded=0;fontSize=16;" vertex="1" parent="1">
          <mxGeometry y="685" width="100" height="30" as="geometry" />
        </mxCell>
        <mxCell id="M_FBvFwb3x526R3b4piB-24" value="nach &#39;git push&#39;" style="text;html=1;align=center;verticalAlign=middle;whiteSpace=wrap;rounded=0;fontSize=16;" vertex="1" parent="1">
          <mxGeometry x="145" y="630" width="300" height="30" as="geometry" />
        </mxCell>
        <mxCell id="M_FBvFwb3x526R3b4piB-27" value="" style="rounded=0;whiteSpace=wrap;html=1;fillColor=#f9f7ed;strokeColor=#36393d;" vertex="1" parent="1">
          <mxGeometry x="850" y="440" width="640" height="310" as="geometry" />
        </mxCell>
        <mxCell id="M_FBvFwb3x526R3b4piB-28" style="edgeStyle=orthogonalEdgeStyle;rounded=0;orthogonalLoop=1;jettySize=auto;html=1;startArrow=classic;startFill=1;endArrow=none;endFill=0;" edge="1" parent="1" source="M_FBvFwb3x526R3b4piB-29" target="M_FBvFwb3x526R3b4piB-31">
          <mxGeometry relative="1" as="geometry" />
        </mxCell>
        <mxCell id="M_FBvFwb3x526R3b4piB-29" value="c1" style="ellipse;whiteSpace=wrap;html=1;aspect=fixed;fillColor=#ffe6cc;strokeColor=#d79b00;" vertex="1" parent="1">
          <mxGeometry x="987" y="460" width="80" height="80" as="geometry" />
        </mxCell>
        <mxCell id="M_FBvFwb3x526R3b4piB-30" style="edgeStyle=orthogonalEdgeStyle;rounded=0;orthogonalLoop=1;jettySize=auto;html=1;entryX=0;entryY=0.5;entryDx=0;entryDy=0;startArrow=classic;startFill=1;endArrow=none;endFill=0;" edge="1" parent="1" source="M_FBvFwb3x526R3b4piB-31" target="M_FBvFwb3x526R3b4piB-32">
          <mxGeometry relative="1" as="geometry" />
        </mxCell>
        <mxCell id="M_FBvFwb3x526R3b4piB-31" value="c2" style="ellipse;whiteSpace=wrap;html=1;aspect=fixed;fillColor=#ffe6cc;strokeColor=#d79b00;" vertex="1" parent="1">
          <mxGeometry x="1117" y="460" width="80" height="80" as="geometry" />
        </mxCell>
        <mxCell id="M_FBvFwb3x526R3b4piB-32" value="c3" style="ellipse;whiteSpace=wrap;html=1;aspect=fixed;fillColor=#ffe6cc;strokeColor=#d79b00;" vertex="1" parent="1">
          <mxGeometry x="1247" y="460" width="80" height="80" as="geometry" />
        </mxCell>
        <mxCell id="M_FBvFwb3x526R3b4piB-33" style="edgeStyle=orthogonalEdgeStyle;rounded=0;orthogonalLoop=1;jettySize=auto;html=1;startArrow=classic;startFill=1;endArrow=none;endFill=0;" edge="1" parent="1" source="M_FBvFwb3x526R3b4piB-34" target="M_FBvFwb3x526R3b4piB-36">
          <mxGeometry relative="1" as="geometry" />
        </mxCell>
        <mxCell id="M_FBvFwb3x526R3b4piB-34" value="c1" style="ellipse;whiteSpace=wrap;html=1;aspect=fixed;fillColor=#ffe6cc;strokeColor=#d79b00;" vertex="1" parent="1">
          <mxGeometry x="987" y="560" width="80" height="80" as="geometry" />
        </mxCell>
        <mxCell id="M_FBvFwb3x526R3b4piB-35" style="edgeStyle=orthogonalEdgeStyle;rounded=0;orthogonalLoop=1;jettySize=auto;html=1;entryX=0;entryY=0.5;entryDx=0;entryDy=0;startArrow=classic;startFill=1;endArrow=none;endFill=0;" edge="1" parent="1" source="M_FBvFwb3x526R3b4piB-36" target="M_FBvFwb3x526R3b4piB-38">
          <mxGeometry relative="1" as="geometry" />
        </mxCell>
        <mxCell id="M_FBvFwb3x526R3b4piB-36" value="c2" style="ellipse;whiteSpace=wrap;html=1;aspect=fixed;fillColor=#ffe6cc;strokeColor=#d79b00;" vertex="1" parent="1">
          <mxGeometry x="1117" y="560" width="80" height="80" as="geometry" />
        </mxCell>
        <mxCell id="M_FBvFwb3x526R3b4piB-37" style="edgeStyle=orthogonalEdgeStyle;rounded=0;orthogonalLoop=1;jettySize=auto;html=1;entryX=0;entryY=0.5;entryDx=0;entryDy=0;startArrow=classic;startFill=1;endArrow=none;endFill=0;" edge="1" parent="1" source="M_FBvFwb3x526R3b4piB-38" target="M_FBvFwb3x526R3b4piB-39">
          <mxGeometry relative="1" as="geometry" />
        </mxCell>
        <mxCell id="M_FBvFwb3x526R3b4piB-38" value="c3" style="ellipse;whiteSpace=wrap;html=1;aspect=fixed;fillColor=#ffe6cc;strokeColor=#d79b00;" vertex="1" parent="1">
          <mxGeometry x="1247" y="560" width="80" height="80" as="geometry" />
        </mxCell>
        <mxCell id="M_FBvFwb3x526R3b4piB-39" value="c4&#39;" style="ellipse;whiteSpace=wrap;html=1;aspect=fixed;fillColor=#d5e8d4;strokeColor=#82b366;" vertex="1" parent="1">
          <mxGeometry x="1377" y="560" width="80" height="80" as="geometry" />
        </mxCell>
        <mxCell id="M_FBvFwb3x526R3b4piB-40" value="Developer 1&lt;div&gt;main&lt;/div&gt;" style="text;html=1;align=center;verticalAlign=middle;whiteSpace=wrap;rounded=0;fontSize=16;" vertex="1" parent="1">
          <mxGeometry x="867" y="585" width="100" height="30" as="geometry" />
        </mxCell>
        <mxCell id="M_FBvFwb3x526R3b4piB-41" value="&lt;div&gt;Remote&lt;/div&gt;origin/main" style="text;html=1;align=center;verticalAlign=middle;whiteSpace=wrap;rounded=0;fontSize=16;" vertex="1" parent="1">
          <mxGeometry x="887" y="485" width="60" height="30" as="geometry" />
        </mxCell>
        <mxCell id="M_FBvFwb3x526R3b4piB-42" style="edgeStyle=orthogonalEdgeStyle;rounded=0;orthogonalLoop=1;jettySize=auto;html=1;startArrow=classic;startFill=1;endArrow=none;endFill=0;" edge="1" parent="1" source="M_FBvFwb3x526R3b4piB-43" target="M_FBvFwb3x526R3b4piB-45">
          <mxGeometry relative="1" as="geometry" />
        </mxCell>
        <mxCell id="M_FBvFwb3x526R3b4piB-43" value="c1" style="ellipse;whiteSpace=wrap;html=1;aspect=fixed;fillColor=#ffe6cc;strokeColor=#d79b00;" vertex="1" parent="1">
          <mxGeometry x="987" y="655" width="80" height="80" as="geometry" />
        </mxCell>
        <mxCell id="M_FBvFwb3x526R3b4piB-44" style="edgeStyle=orthogonalEdgeStyle;rounded=0;orthogonalLoop=1;jettySize=auto;html=1;entryX=0;entryY=0.5;entryDx=0;entryDy=0;startArrow=classic;startFill=1;endArrow=none;endFill=0;" edge="1" parent="1" source="M_FBvFwb3x526R3b4piB-45" target="M_FBvFwb3x526R3b4piB-47">
          <mxGeometry relative="1" as="geometry" />
        </mxCell>
        <mxCell id="M_FBvFwb3x526R3b4piB-45" value="c2" style="ellipse;whiteSpace=wrap;html=1;aspect=fixed;fillColor=#ffe6cc;strokeColor=#d79b00;" vertex="1" parent="1">
          <mxGeometry x="1117" y="655" width="80" height="80" as="geometry" />
        </mxCell>
        <mxCell id="M_FBvFwb3x526R3b4piB-46" style="edgeStyle=orthogonalEdgeStyle;rounded=0;orthogonalLoop=1;jettySize=auto;html=1;entryX=0;entryY=0.5;entryDx=0;entryDy=0;startArrow=classic;startFill=1;endArrow=none;endFill=0;" edge="1" parent="1" source="M_FBvFwb3x526R3b4piB-47" target="M_FBvFwb3x526R3b4piB-48">
          <mxGeometry relative="1" as="geometry" />
        </mxCell>
        <mxCell id="M_FBvFwb3x526R3b4piB-47" value="c3" style="ellipse;whiteSpace=wrap;html=1;aspect=fixed;fillColor=#ffe6cc;strokeColor=#d79b00;" vertex="1" parent="1">
          <mxGeometry x="1247" y="655" width="80" height="80" as="geometry" />
        </mxCell>
        <mxCell id="M_FBvFwb3x526R3b4piB-48" value="c4&#39;&#39;" style="ellipse;whiteSpace=wrap;html=1;aspect=fixed;fillColor=#cce5ff;strokeColor=#36393d;" vertex="1" parent="1">
          <mxGeometry x="1377" y="655" width="80" height="80" as="geometry" />
        </mxCell>
        <mxCell id="M_FBvFwb3x526R3b4piB-49" value="Developer 2&lt;div&gt;main&lt;/div&gt;" style="text;html=1;align=center;verticalAlign=middle;whiteSpace=wrap;rounded=0;fontSize=16;" vertex="1" parent="1">
          <mxGeometry x="867" y="680" width="100" height="30" as="geometry" />
        </mxCell>
        <mxCell id="M_FBvFwb3x526R3b4piB-89" value="" style="rounded=0;whiteSpace=wrap;html=1;fillColor=#f9f7ed;strokeColor=#36393d;" vertex="1" parent="1">
          <mxGeometry x="850" y="800" width="530" height="220" as="geometry" />
        </mxCell>
        <mxCell id="M_FBvFwb3x526R3b4piB-113" style="edgeStyle=orthogonalEdgeStyle;rounded=0;orthogonalLoop=1;jettySize=auto;html=1;entryX=0;entryY=0.5;entryDx=0;entryDy=0;startArrow=classic;startFill=1;endArrow=none;endFill=0;" edge="1" parent="1" source="M_FBvFwb3x526R3b4piB-94" target="M_FBvFwb3x526R3b4piB-112">
          <mxGeometry relative="1" as="geometry" />
        </mxCell>
        <mxCell id="M_FBvFwb3x526R3b4piB-94" value="c3" style="ellipse;whiteSpace=wrap;html=1;aspect=fixed;fillColor=#ffe6cc;strokeColor=#d79b00;" vertex="1" parent="1">
          <mxGeometry x="987" y="820" width="80" height="80" as="geometry" />
        </mxCell>
        <mxCell id="M_FBvFwb3x526R3b4piB-117" style="edgeStyle=orthogonalEdgeStyle;rounded=0;orthogonalLoop=1;jettySize=auto;html=1;startArrow=classic;startFill=1;endArrow=none;endFill=0;" edge="1" parent="1" source="M_FBvFwb3x526R3b4piB-100" target="M_FBvFwb3x526R3b4piB-116">
          <mxGeometry relative="1" as="geometry" />
        </mxCell>
        <mxCell id="M_FBvFwb3x526R3b4piB-100" value="c3" style="ellipse;whiteSpace=wrap;html=1;aspect=fixed;fillColor=#ffe6cc;strokeColor=#d79b00;" vertex="1" parent="1">
          <mxGeometry x="987" y="920" width="80" height="80" as="geometry" />
        </mxCell>
        <mxCell id="M_FBvFwb3x526R3b4piB-102" value="Option 2" style="text;html=1;align=center;verticalAlign=middle;whiteSpace=wrap;rounded=0;fontSize=16;" vertex="1" parent="1">
          <mxGeometry x="850" y="939.9" width="134" height="40.2" as="geometry" />
        </mxCell>
        <mxCell id="M_FBvFwb3x526R3b4piB-103" value="Option 1" style="text;html=1;align=center;verticalAlign=middle;whiteSpace=wrap;rounded=0;fontSize=16;" vertex="1" parent="1">
          <mxGeometry x="850" y="826.5" width="134" height="67" as="geometry" />
        </mxCell>
        <mxCell id="M_FBvFwb3x526R3b4piB-115" style="edgeStyle=orthogonalEdgeStyle;rounded=0;orthogonalLoop=1;jettySize=auto;html=1;exitX=1;exitY=0.5;exitDx=0;exitDy=0;startArrow=classic;startFill=1;endArrow=none;endFill=0;" edge="1" parent="1" source="M_FBvFwb3x526R3b4piB-112" target="M_FBvFwb3x526R3b4piB-114">
          <mxGeometry relative="1" as="geometry" />
        </mxCell>
        <mxCell id="M_FBvFwb3x526R3b4piB-112" value="c4&#39;" style="ellipse;whiteSpace=wrap;html=1;aspect=fixed;fillColor=#d5e8d4;strokeColor=#82b366;" vertex="1" parent="1">
          <mxGeometry x="1117" y="820" width="80" height="80" as="geometry" />
        </mxCell>
        <mxCell id="M_FBvFwb3x526R3b4piB-114" value="c4&#39;&#39;" style="ellipse;whiteSpace=wrap;html=1;aspect=fixed;fillColor=#cce5ff;strokeColor=#36393d;" vertex="1" parent="1">
          <mxGeometry x="1247" y="820" width="80" height="80" as="geometry" />
        </mxCell>
        <mxCell id="M_FBvFwb3x526R3b4piB-119" style="edgeStyle=orthogonalEdgeStyle;rounded=0;orthogonalLoop=1;jettySize=auto;html=1;entryX=0;entryY=0.5;entryDx=0;entryDy=0;startArrow=classic;startFill=1;endArrow=none;endFill=0;" edge="1" parent="1" source="M_FBvFwb3x526R3b4piB-116" target="M_FBvFwb3x526R3b4piB-118">
          <mxGeometry relative="1" as="geometry" />
        </mxCell>
        <mxCell id="M_FBvFwb3x526R3b4piB-116" value="c4&#39;&#39;" style="ellipse;whiteSpace=wrap;html=1;aspect=fixed;fillColor=#cce5ff;strokeColor=#36393d;" vertex="1" parent="1">
          <mxGeometry x="1117" y="920" width="80" height="80" as="geometry" />
        </mxCell>
        <mxCell id="M_FBvFwb3x526R3b4piB-118" value="c4&#39;" style="ellipse;whiteSpace=wrap;html=1;aspect=fixed;fillColor=#d5e8d4;strokeColor=#82b366;" vertex="1" parent="1">
          <mxGeometry x="1247" y="920" width="80" height="80" as="geometry" />
        </mxCell>
        <mxCell id="M_FBvFwb3x526R3b4piB-120" value="" style="rounded=0;whiteSpace=wrap;html=1;fillColor=#f9f7ed;strokeColor=#36393d;" vertex="1" parent="1">
          <mxGeometry x="1600" y="470" width="600" height="180" as="geometry" />
        </mxCell>
        <mxCell id="M_FBvFwb3x526R3b4piB-121" value="main" style="text;html=1;align=center;verticalAlign=middle;whiteSpace=wrap;rounded=0;" vertex="1" parent="1">
          <mxGeometry x="1620" y="485" width="60" height="30" as="geometry" />
        </mxCell>
        <mxCell id="M_FBvFwb3x526R3b4piB-126" style="edgeStyle=orthogonalEdgeStyle;rounded=0;orthogonalLoop=1;jettySize=auto;html=1;exitX=1;exitY=0.5;exitDx=0;exitDy=0;entryX=0;entryY=0.5;entryDx=0;entryDy=0;startArrow=classic;startFill=1;endArrow=none;endFill=0;" edge="1" parent="1" source="M_FBvFwb3x526R3b4piB-122" target="M_FBvFwb3x526R3b4piB-123">
          <mxGeometry relative="1" as="geometry" />
        </mxCell>
        <mxCell id="M_FBvFwb3x526R3b4piB-122" value="c1" style="ellipse;whiteSpace=wrap;html=1;aspect=fixed;fillColor=#ffe6cc;strokeColor=#d79b00;" vertex="1" parent="1">
          <mxGeometry x="1680" y="480" width="40" height="40" as="geometry" />
        </mxCell>
        <mxCell id="M_FBvFwb3x526R3b4piB-127" style="rounded=0;orthogonalLoop=1;jettySize=auto;html=1;exitX=0.5;exitY=1;exitDx=0;exitDy=0;entryX=0;entryY=0.5;entryDx=0;entryDy=0;startArrow=classic;startFill=1;endArrow=none;endFill=0;" edge="1" parent="1" source="M_FBvFwb3x526R3b4piB-123" target="M_FBvFwb3x526R3b4piB-125">
          <mxGeometry relative="1" as="geometry" />
        </mxCell>
        <mxCell id="M_FBvFwb3x526R3b4piB-131" style="edgeStyle=orthogonalEdgeStyle;rounded=0;orthogonalLoop=1;jettySize=auto;html=1;exitX=1;exitY=0.5;exitDx=0;exitDy=0;entryX=0;entryY=0.5;entryDx=0;entryDy=0;startArrow=classic;startFill=1;endArrow=none;endFill=0;" edge="1" parent="1" source="M_FBvFwb3x526R3b4piB-123" target="M_FBvFwb3x526R3b4piB-130">
          <mxGeometry relative="1" as="geometry" />
        </mxCell>
        <mxCell id="M_FBvFwb3x526R3b4piB-144" style="rounded=0;orthogonalLoop=1;jettySize=auto;html=1;exitX=0.5;exitY=1;exitDx=0;exitDy=0;entryX=0;entryY=0.5;entryDx=0;entryDy=0;startArrow=classic;startFill=1;endArrow=none;endFill=0;" edge="1" parent="1" source="M_FBvFwb3x526R3b4piB-123" target="M_FBvFwb3x526R3b4piB-143">
          <mxGeometry relative="1" as="geometry" />
        </mxCell>
        <mxCell id="M_FBvFwb3x526R3b4piB-123" value="c2" style="ellipse;whiteSpace=wrap;html=1;aspect=fixed;fillColor=#ffe6cc;strokeColor=#d79b00;" vertex="1" parent="1">
          <mxGeometry x="1740" y="480" width="40" height="40" as="geometry" />
        </mxCell>
        <mxCell id="M_FBvFwb3x526R3b4piB-124" value="feature/f1" style="text;html=1;align=center;verticalAlign=middle;whiteSpace=wrap;rounded=0;" vertex="1" parent="1">
          <mxGeometry x="1600" y="540" width="120" height="30" as="geometry" />
        </mxCell>
        <mxCell id="M_FBvFwb3x526R3b4piB-129" style="edgeStyle=orthogonalEdgeStyle;rounded=0;orthogonalLoop=1;jettySize=auto;html=1;exitX=1;exitY=0.5;exitDx=0;exitDy=0;entryX=0;entryY=0.5;entryDx=0;entryDy=0;startArrow=classic;startFill=1;endArrow=none;endFill=0;" edge="1" parent="1" source="M_FBvFwb3x526R3b4piB-125" target="M_FBvFwb3x526R3b4piB-128">
          <mxGeometry relative="1" as="geometry" />
        </mxCell>
        <mxCell id="M_FBvFwb3x526R3b4piB-125" value="f1" style="ellipse;whiteSpace=wrap;html=1;aspect=fixed;fillColor=#d5e8d4;strokeColor=#82b366;" vertex="1" parent="1">
          <mxGeometry x="1810" y="540" width="40" height="40" as="geometry" />
        </mxCell>
        <mxCell id="M_FBvFwb3x526R3b4piB-133" style="rounded=0;orthogonalLoop=1;jettySize=auto;html=1;exitX=1;exitY=0.5;exitDx=0;exitDy=0;entryX=0.5;entryY=1;entryDx=0;entryDy=0;startArrow=classic;startFill=1;endArrow=none;endFill=0;" edge="1" parent="1" source="M_FBvFwb3x526R3b4piB-128" target="M_FBvFwb3x526R3b4piB-130">
          <mxGeometry relative="1" as="geometry" />
        </mxCell>
        <mxCell id="M_FBvFwb3x526R3b4piB-128" value="f2" style="ellipse;whiteSpace=wrap;html=1;aspect=fixed;fillColor=#d5e8d4;strokeColor=#82b366;" vertex="1" parent="1">
          <mxGeometry x="1870" y="540" width="40" height="40" as="geometry" />
        </mxCell>
        <mxCell id="M_FBvFwb3x526R3b4piB-130" value="c3" style="ellipse;whiteSpace=wrap;html=1;aspect=fixed;fillColor=#ffe6cc;strokeColor=#d79b00;" vertex="1" parent="1">
          <mxGeometry x="1910" y="480" width="40" height="40" as="geometry" />
        </mxCell>
        <mxCell id="M_FBvFwb3x526R3b4piB-142" value="feature/p1" style="text;html=1;align=center;verticalAlign=middle;whiteSpace=wrap;rounded=0;" vertex="1" parent="1">
          <mxGeometry x="1600" y="595" width="120" height="30" as="geometry" />
        </mxCell>
        <mxCell id="M_FBvFwb3x526R3b4piB-143" value="p1" style="ellipse;whiteSpace=wrap;html=1;aspect=fixed;fillColor=#cce5ff;strokeColor=#36393d;" vertex="1" parent="1">
          <mxGeometry x="1800" y="590" width="40" height="40" as="geometry" />
        </mxCell>
        <mxCell id="M_FBvFwb3x526R3b4piB-157" style="edgeStyle=orthogonalEdgeStyle;rounded=0;orthogonalLoop=1;jettySize=auto;html=1;entryX=1;entryY=0.5;entryDx=0;entryDy=0;" edge="1" parent="1" source="M_FBvFwb3x526R3b4piB-148" target="M_FBvFwb3x526R3b4piB-130">
          <mxGeometry relative="1" as="geometry" />
        </mxCell>
        <mxCell id="M_FBvFwb3x526R3b4piB-148" value="c4" style="ellipse;whiteSpace=wrap;html=1;aspect=fixed;fillColor=#ffe6cc;strokeColor=#d79b00;" vertex="1" parent="1">
          <mxGeometry x="2120" y="480" width="40" height="40" as="geometry" />
        </mxCell>
        <mxCell id="M_FBvFwb3x526R3b4piB-163" style="edgeStyle=orthogonalEdgeStyle;rounded=0;orthogonalLoop=1;jettySize=auto;html=1;" edge="1" parent="1" source="M_FBvFwb3x526R3b4piB-150" target="M_FBvFwb3x526R3b4piB-160">
          <mxGeometry relative="1" as="geometry" />
        </mxCell>
        <mxCell id="M_FBvFwb3x526R3b4piB-150" value="p3" style="ellipse;whiteSpace=wrap;html=1;aspect=fixed;fillColor=#cce5ff;strokeColor=#36393d;" vertex="1" parent="1">
          <mxGeometry x="2070" y="590" width="40" height="40" as="geometry" />
        </mxCell>
        <mxCell id="M_FBvFwb3x526R3b4piB-162" style="edgeStyle=orthogonalEdgeStyle;rounded=0;orthogonalLoop=1;jettySize=auto;html=1;entryX=1;entryY=0.5;entryDx=0;entryDy=0;" edge="1" parent="1" source="M_FBvFwb3x526R3b4piB-160" target="M_FBvFwb3x526R3b4piB-143">
          <mxGeometry relative="1" as="geometry" />
        </mxCell>
        <mxCell id="M_FBvFwb3x526R3b4piB-184" style="rounded=0;orthogonalLoop=1;jettySize=auto;html=1;entryX=0.5;entryY=1;entryDx=0;entryDy=0;" edge="1" parent="1" source="M_FBvFwb3x526R3b4piB-160" target="M_FBvFwb3x526R3b4piB-130">
          <mxGeometry relative="1" as="geometry" />
        </mxCell>
        <mxCell id="M_FBvFwb3x526R3b4piB-160" value="p2" style="ellipse;whiteSpace=wrap;html=1;aspect=fixed;fillColor=#cce5ff;strokeColor=#36393d;" vertex="1" parent="1">
          <mxGeometry x="1970" y="590" width="40" height="40" as="geometry" />
        </mxCell>
        <mxCell id="M_FBvFwb3x526R3b4piB-185" style="rounded=0;orthogonalLoop=1;jettySize=auto;html=1;entryX=0.91;entryY=0.318;entryDx=0;entryDy=0;entryPerimeter=0;" edge="1" parent="1" source="M_FBvFwb3x526R3b4piB-148" target="M_FBvFwb3x526R3b4piB-150">
          <mxGeometry relative="1" as="geometry" />
        </mxCell>
        <mxCell id="M_FBvFwb3x526R3b4piB-186" value="" style="rounded=0;whiteSpace=wrap;html=1;fillColor=#f9f7ed;strokeColor=#36393d;" vertex="1" parent="1">
          <mxGeometry x="1600" y="680" width="600" height="290" as="geometry" />
        </mxCell>
        <mxCell id="M_FBvFwb3x526R3b4piB-187" value="main" style="text;html=1;align=center;verticalAlign=middle;whiteSpace=wrap;rounded=0;" vertex="1" parent="1">
          <mxGeometry x="1620" y="695" width="60" height="30" as="geometry" />
        </mxCell>
        <mxCell id="M_FBvFwb3x526R3b4piB-188" style="edgeStyle=orthogonalEdgeStyle;rounded=0;orthogonalLoop=1;jettySize=auto;html=1;exitX=1;exitY=0.5;exitDx=0;exitDy=0;entryX=0;entryY=0.5;entryDx=0;entryDy=0;startArrow=classic;startFill=1;endArrow=none;endFill=0;" edge="1" parent="1" source="M_FBvFwb3x526R3b4piB-189" target="M_FBvFwb3x526R3b4piB-193">
          <mxGeometry relative="1" as="geometry" />
        </mxCell>
        <mxCell id="M_FBvFwb3x526R3b4piB-189" value="c1" style="ellipse;whiteSpace=wrap;html=1;aspect=fixed;fillColor=#ffe6cc;strokeColor=#d79b00;" vertex="1" parent="1">
          <mxGeometry x="1680" y="690" width="40" height="40" as="geometry" />
        </mxCell>
        <mxCell id="M_FBvFwb3x526R3b4piB-190" style="rounded=0;orthogonalLoop=1;jettySize=auto;html=1;exitX=0.5;exitY=1;exitDx=0;exitDy=0;entryX=0;entryY=0.5;entryDx=0;entryDy=0;startArrow=classic;startFill=1;endArrow=none;endFill=0;" edge="1" parent="1" source="M_FBvFwb3x526R3b4piB-193" target="M_FBvFwb3x526R3b4piB-196">
          <mxGeometry relative="1" as="geometry" />
        </mxCell>
        <mxCell id="M_FBvFwb3x526R3b4piB-191" style="edgeStyle=orthogonalEdgeStyle;rounded=0;orthogonalLoop=1;jettySize=auto;html=1;exitX=1;exitY=0.5;exitDx=0;exitDy=0;entryX=0;entryY=0.5;entryDx=0;entryDy=0;startArrow=classic;startFill=1;endArrow=none;endFill=0;" edge="1" parent="1" source="M_FBvFwb3x526R3b4piB-193" target="M_FBvFwb3x526R3b4piB-199">
          <mxGeometry relative="1" as="geometry" />
        </mxCell>
        <mxCell id="M_FBvFwb3x526R3b4piB-192" style="rounded=0;orthogonalLoop=1;jettySize=auto;html=1;exitX=0.5;exitY=1;exitDx=0;exitDy=0;entryX=0;entryY=0.5;entryDx=0;entryDy=0;startArrow=classic;startFill=1;endArrow=none;endFill=0;" edge="1" parent="1" source="M_FBvFwb3x526R3b4piB-193" target="M_FBvFwb3x526R3b4piB-201">
          <mxGeometry relative="1" as="geometry" />
        </mxCell>
        <mxCell id="M_FBvFwb3x526R3b4piB-193" value="c2" style="ellipse;whiteSpace=wrap;html=1;aspect=fixed;fillColor=#ffe6cc;strokeColor=#d79b00;" vertex="1" parent="1">
          <mxGeometry x="1740" y="690" width="40" height="40" as="geometry" />
        </mxCell>
        <mxCell id="M_FBvFwb3x526R3b4piB-194" value="feature/f1" style="text;html=1;align=center;verticalAlign=middle;whiteSpace=wrap;rounded=0;" vertex="1" parent="1">
          <mxGeometry x="1600" y="750" width="120" height="30" as="geometry" />
        </mxCell>
        <mxCell id="M_FBvFwb3x526R3b4piB-195" style="edgeStyle=orthogonalEdgeStyle;rounded=0;orthogonalLoop=1;jettySize=auto;html=1;exitX=1;exitY=0.5;exitDx=0;exitDy=0;entryX=0;entryY=0.5;entryDx=0;entryDy=0;startArrow=classic;startFill=1;endArrow=none;endFill=0;" edge="1" parent="1" source="M_FBvFwb3x526R3b4piB-196" target="M_FBvFwb3x526R3b4piB-198">
          <mxGeometry relative="1" as="geometry" />
        </mxCell>
        <mxCell id="M_FBvFwb3x526R3b4piB-196" value="f1" style="ellipse;whiteSpace=wrap;html=1;aspect=fixed;fillColor=#d5e8d4;strokeColor=#82b366;" vertex="1" parent="1">
          <mxGeometry x="1800" y="730" width="40" height="40" as="geometry" />
        </mxCell>
        <mxCell id="M_FBvFwb3x526R3b4piB-197" style="rounded=0;orthogonalLoop=1;jettySize=auto;html=1;exitX=1;exitY=0.5;exitDx=0;exitDy=0;entryX=0.5;entryY=1;entryDx=0;entryDy=0;startArrow=classic;startFill=1;endArrow=none;endFill=0;" edge="1" parent="1" source="M_FBvFwb3x526R3b4piB-198" target="M_FBvFwb3x526R3b4piB-199">
          <mxGeometry relative="1" as="geometry" />
        </mxCell>
        <mxCell id="M_FBvFwb3x526R3b4piB-198" value="f2" style="ellipse;whiteSpace=wrap;html=1;aspect=fixed;fillColor=#d5e8d4;strokeColor=#82b366;" vertex="1" parent="1">
          <mxGeometry x="1860" y="730" width="40" height="40" as="geometry" />
        </mxCell>
        <mxCell id="M_FBvFwb3x526R3b4piB-199" value="c3" style="ellipse;whiteSpace=wrap;html=1;aspect=fixed;fillColor=#ffe6cc;strokeColor=#d79b00;" vertex="1" parent="1">
          <mxGeometry x="1910" y="690" width="40" height="40" as="geometry" />
        </mxCell>
        <mxCell id="M_FBvFwb3x526R3b4piB-200" value="feature/p1" style="text;html=1;align=center;verticalAlign=middle;whiteSpace=wrap;rounded=0;" vertex="1" parent="1">
          <mxGeometry x="1600" y="805" width="120" height="30" as="geometry" />
        </mxCell>
        <mxCell id="M_FBvFwb3x526R3b4piB-201" value="p1" style="ellipse;whiteSpace=wrap;html=1;aspect=fixed;fillColor=#cce5ff;strokeColor=#36393d;" vertex="1" parent="1">
          <mxGeometry x="1800" y="780" width="40" height="40" as="geometry" />
        </mxCell>
        <mxCell id="M_FBvFwb3x526R3b4piB-202" style="edgeStyle=orthogonalEdgeStyle;rounded=0;orthogonalLoop=1;jettySize=auto;html=1;entryX=1;entryY=0.5;entryDx=0;entryDy=0;" edge="1" parent="1" source="M_FBvFwb3x526R3b4piB-203" target="M_FBvFwb3x526R3b4piB-199">
          <mxGeometry relative="1" as="geometry" />
        </mxCell>
        <mxCell id="M_FBvFwb3x526R3b4piB-203" value="c4" style="ellipse;whiteSpace=wrap;html=1;aspect=fixed;fillColor=#ffe6cc;strokeColor=#d79b00;" vertex="1" parent="1">
          <mxGeometry x="2120" y="690" width="40" height="40" as="geometry" />
        </mxCell>
        <mxCell id="M_FBvFwb3x526R3b4piB-204" style="edgeStyle=orthogonalEdgeStyle;rounded=0;orthogonalLoop=1;jettySize=auto;html=1;" edge="1" parent="1" source="M_FBvFwb3x526R3b4piB-205" target="M_FBvFwb3x526R3b4piB-208">
          <mxGeometry relative="1" as="geometry" />
        </mxCell>
        <mxCell id="M_FBvFwb3x526R3b4piB-205" value="p3" style="ellipse;whiteSpace=wrap;html=1;aspect=fixed;fillColor=#cce5ff;strokeColor=#36393d;" vertex="1" parent="1">
          <mxGeometry x="1940" y="780" width="40" height="40" as="geometry" />
        </mxCell>
        <mxCell id="M_FBvFwb3x526R3b4piB-206" style="edgeStyle=orthogonalEdgeStyle;rounded=0;orthogonalLoop=1;jettySize=auto;html=1;entryX=1;entryY=0.5;entryDx=0;entryDy=0;" edge="1" parent="1" source="M_FBvFwb3x526R3b4piB-208" target="M_FBvFwb3x526R3b4piB-201">
          <mxGeometry relative="1" as="geometry" />
        </mxCell>
        <mxCell id="M_FBvFwb3x526R3b4piB-208" value="p2" style="ellipse;whiteSpace=wrap;html=1;aspect=fixed;fillColor=#cce5ff;strokeColor=#36393d;" vertex="1" parent="1">
          <mxGeometry x="1870" y="780" width="40" height="40" as="geometry" />
        </mxCell>
        <mxCell id="M_FBvFwb3x526R3b4piB-209" style="rounded=0;orthogonalLoop=1;jettySize=auto;html=1;entryX=0.91;entryY=0.318;entryDx=0;entryDy=0;entryPerimeter=0;" edge="1" parent="1" source="M_FBvFwb3x526R3b4piB-203" target="M_FBvFwb3x526R3b4piB-205">
          <mxGeometry relative="1" as="geometry" />
        </mxCell>
        <mxCell id="M_FBvFwb3x526R3b4piB-210" style="edgeStyle=orthogonalEdgeStyle;rounded=0;orthogonalLoop=1;jettySize=auto;html=1;exitX=1;exitY=0.5;exitDx=0;exitDy=0;entryX=0;entryY=0.5;entryDx=0;entryDy=0;startArrow=classic;startFill=1;endArrow=none;endFill=0;" edge="1" parent="1" source="M_FBvFwb3x526R3b4piB-211" target="M_FBvFwb3x526R3b4piB-215">
          <mxGeometry relative="1" as="geometry" />
        </mxCell>
        <mxCell id="M_FBvFwb3x526R3b4piB-211" value="c1" style="ellipse;whiteSpace=wrap;html=1;aspect=fixed;fillColor=#ffe6cc;strokeColor=#d79b00;" vertex="1" parent="1">
          <mxGeometry x="1680" y="845" width="40" height="40" as="geometry" />
        </mxCell>
        <mxCell id="M_FBvFwb3x526R3b4piB-212" style="rounded=0;orthogonalLoop=1;jettySize=auto;html=1;exitX=0.5;exitY=1;exitDx=0;exitDy=0;entryX=0;entryY=0.5;entryDx=0;entryDy=0;startArrow=classic;startFill=1;endArrow=none;endFill=0;" edge="1" parent="1" source="M_FBvFwb3x526R3b4piB-215" target="M_FBvFwb3x526R3b4piB-217">
          <mxGeometry relative="1" as="geometry" />
        </mxCell>
        <mxCell id="M_FBvFwb3x526R3b4piB-213" style="edgeStyle=orthogonalEdgeStyle;rounded=0;orthogonalLoop=1;jettySize=auto;html=1;exitX=1;exitY=0.5;exitDx=0;exitDy=0;entryX=0;entryY=0.5;entryDx=0;entryDy=0;startArrow=classic;startFill=1;endArrow=none;endFill=0;" edge="1" parent="1" source="M_FBvFwb3x526R3b4piB-215" target="M_FBvFwb3x526R3b4piB-220">
          <mxGeometry relative="1" as="geometry" />
        </mxCell>
        <mxCell id="M_FBvFwb3x526R3b4piB-215" value="c2" style="ellipse;whiteSpace=wrap;html=1;aspect=fixed;fillColor=#ffe6cc;strokeColor=#d79b00;" vertex="1" parent="1">
          <mxGeometry x="1740" y="845" width="40" height="40" as="geometry" />
        </mxCell>
        <mxCell id="M_FBvFwb3x526R3b4piB-216" style="edgeStyle=orthogonalEdgeStyle;rounded=0;orthogonalLoop=1;jettySize=auto;html=1;exitX=1;exitY=0.5;exitDx=0;exitDy=0;entryX=0;entryY=0.5;entryDx=0;entryDy=0;startArrow=classic;startFill=1;endArrow=none;endFill=0;" edge="1" parent="1" source="M_FBvFwb3x526R3b4piB-217" target="M_FBvFwb3x526R3b4piB-219">
          <mxGeometry relative="1" as="geometry" />
        </mxCell>
        <mxCell id="M_FBvFwb3x526R3b4piB-217" value="f1" style="ellipse;whiteSpace=wrap;html=1;aspect=fixed;fillColor=#d5e8d4;strokeColor=#82b366;" vertex="1" parent="1">
          <mxGeometry x="1800" y="885" width="40" height="40" as="geometry" />
        </mxCell>
        <mxCell id="M_FBvFwb3x526R3b4piB-218" style="rounded=0;orthogonalLoop=1;jettySize=auto;html=1;exitX=1;exitY=0.5;exitDx=0;exitDy=0;entryX=0.5;entryY=1;entryDx=0;entryDy=0;startArrow=classic;startFill=1;endArrow=none;endFill=0;" edge="1" parent="1" source="M_FBvFwb3x526R3b4piB-219" target="M_FBvFwb3x526R3b4piB-220">
          <mxGeometry relative="1" as="geometry" />
        </mxCell>
        <mxCell id="M_FBvFwb3x526R3b4piB-219" value="f2" style="ellipse;whiteSpace=wrap;html=1;aspect=fixed;fillColor=#d5e8d4;strokeColor=#82b366;" vertex="1" parent="1">
          <mxGeometry x="1860" y="885" width="40" height="40" as="geometry" />
        </mxCell>
        <mxCell id="M_FBvFwb3x526R3b4piB-220" value="c3" style="ellipse;whiteSpace=wrap;html=1;aspect=fixed;fillColor=#ffe6cc;strokeColor=#d79b00;" vertex="1" parent="1">
          <mxGeometry x="1910" y="845" width="40" height="40" as="geometry" />
        </mxCell>
        <mxCell id="M_FBvFwb3x526R3b4piB-229" style="rounded=0;orthogonalLoop=1;jettySize=auto;html=1;exitX=0;exitY=0;exitDx=0;exitDy=0;entryX=0.5;entryY=1;entryDx=0;entryDy=0;" edge="1" parent="1" source="M_FBvFwb3x526R3b4piB-221" target="M_FBvFwb3x526R3b4piB-220">
          <mxGeometry relative="1" as="geometry" />
        </mxCell>
        <mxCell id="M_FBvFwb3x526R3b4piB-221" value="p1" style="ellipse;whiteSpace=wrap;html=1;aspect=fixed;fillColor=#cce5ff;strokeColor=#36393d;" vertex="1" parent="1">
          <mxGeometry x="1960" y="915" width="40" height="40" as="geometry" />
        </mxCell>
        <mxCell id="M_FBvFwb3x526R3b4piB-222" style="edgeStyle=orthogonalEdgeStyle;rounded=0;orthogonalLoop=1;jettySize=auto;html=1;entryX=1;entryY=0.5;entryDx=0;entryDy=0;" edge="1" parent="1" source="M_FBvFwb3x526R3b4piB-223" target="M_FBvFwb3x526R3b4piB-220">
          <mxGeometry relative="1" as="geometry" />
        </mxCell>
        <mxCell id="M_FBvFwb3x526R3b4piB-223" value="c4" style="ellipse;whiteSpace=wrap;html=1;aspect=fixed;fillColor=#ffe6cc;strokeColor=#d79b00;" vertex="1" parent="1">
          <mxGeometry x="2120" y="845" width="40" height="40" as="geometry" />
        </mxCell>
        <mxCell id="M_FBvFwb3x526R3b4piB-224" style="edgeStyle=orthogonalEdgeStyle;rounded=0;orthogonalLoop=1;jettySize=auto;html=1;" edge="1" parent="1" source="M_FBvFwb3x526R3b4piB-225" target="M_FBvFwb3x526R3b4piB-227">
          <mxGeometry relative="1" as="geometry" />
        </mxCell>
        <mxCell id="M_FBvFwb3x526R3b4piB-225" value="p3" style="ellipse;whiteSpace=wrap;html=1;aspect=fixed;fillColor=#cce5ff;strokeColor=#36393d;" vertex="1" parent="1">
          <mxGeometry x="2080" y="915" width="40" height="40" as="geometry" />
        </mxCell>
        <mxCell id="M_FBvFwb3x526R3b4piB-226" style="edgeStyle=orthogonalEdgeStyle;rounded=0;orthogonalLoop=1;jettySize=auto;html=1;entryX=1;entryY=0.5;entryDx=0;entryDy=0;" edge="1" parent="1" source="M_FBvFwb3x526R3b4piB-227" target="M_FBvFwb3x526R3b4piB-221">
          <mxGeometry relative="1" as="geometry" />
        </mxCell>
        <mxCell id="M_FBvFwb3x526R3b4piB-227" value="p2" style="ellipse;whiteSpace=wrap;html=1;aspect=fixed;fillColor=#cce5ff;strokeColor=#36393d;" vertex="1" parent="1">
          <mxGeometry x="2020" y="915" width="40" height="40" as="geometry" />
        </mxCell>
        <mxCell id="M_FBvFwb3x526R3b4piB-228" style="rounded=0;orthogonalLoop=1;jettySize=auto;html=1;entryX=0.91;entryY=0.318;entryDx=0;entryDy=0;entryPerimeter=0;" edge="1" parent="1" source="M_FBvFwb3x526R3b4piB-223" target="M_FBvFwb3x526R3b4piB-225">
          <mxGeometry relative="1" as="geometry" />
        </mxCell>
        <mxCell id="M_FBvFwb3x526R3b4piB-230" value="main" style="text;html=1;align=center;verticalAlign=middle;whiteSpace=wrap;rounded=0;" vertex="1" parent="1">
          <mxGeometry x="1620" y="850.1" width="60" height="30" as="geometry" />
        </mxCell>
        <mxCell id="M_FBvFwb3x526R3b4piB-231" value="feature/f1" style="text;html=1;align=center;verticalAlign=middle;whiteSpace=wrap;rounded=0;" vertex="1" parent="1">
          <mxGeometry x="1600" y="885.1" width="120" height="30" as="geometry" />
        </mxCell>
        <mxCell id="M_FBvFwb3x526R3b4piB-232" value="feature/p1" style="text;html=1;align=center;verticalAlign=middle;whiteSpace=wrap;rounded=0;" vertex="1" parent="1">
          <mxGeometry x="1600" y="920.1" width="120" height="30" as="geometry" />
        </mxCell>
        <mxCell id="M_FBvFwb3x526R3b4piB-234" value="" style="endArrow=none;dashed=1;html=1;dashPattern=1 3;strokeWidth=2;rounded=0;" edge="1" parent="1">
          <mxGeometry width="50" height="50" relative="1" as="geometry">
            <mxPoint x="1600" y="840" as="sourcePoint" />
            <mxPoint x="2200" y="840" as="targetPoint" />
          </mxGeometry>
        </mxCell>
        <mxCell id="M_FBvFwb3x526R3b4piB-235" value="After Rebase" style="edgeLabel;html=1;align=center;verticalAlign=middle;resizable=0;points=[];" vertex="1" connectable="0" parent="M_FBvFwb3x526R3b4piB-234">
          <mxGeometry x="-0.1487" y="2" relative="1" as="geometry">
            <mxPoint as="offset" />
          </mxGeometry>
        </mxCell>
      </root>
    </mxGraphModel>
  </diagram>
</mxfile>
